<?xml version="1.0" encoding="UTF-8" standalone="no"?>
<svg
  xmlns="http://www.w3.org/2000/svg"
  xmlns:svg="http://www.w3.org/2000/svg"
  version="1.1"
  viewBox="70 92 89.236946 18.6436">
<g fill="#ffffff" transform="translate(-2.692462,-1.167439)">
  <path d="m 79.067862,94.818439 q 2.6416,0 4.0386,1.168399 1.397,1.1684 1.397,3.3528 0,2.159002 -1.778,3.860802 -1.778,1.7018 -4.0386,1.7018 h -2.1336 l -0.0508,2.4892 q 0,1.7272 0.1778,2.159 0.2032,0.4318 0.9398,0.4318 l 1.3716,-0.0762 0.0508,0.1016 -0.2286,1.1684 q 0,-0.0762 -1.6764,-0.0762 -1.6764,0 -3.048,0.0762 -1.3462,0.0762 -1.397,0.127 l 0.1778,-1.1684 q 1.1176,-0.2032 1.4732,-0.5842 0.3556,-0.4064 0.3556,-1.4986 l 0.0254,-10.668002 q 0,-0.8128 -0.2032,-1.0922 -0.1778,-0.2794 -0.7366,-0.2794 l -0.8636,0.0508 -0.0508,-0.1016 0.1778,-1.117599 q 1.8542,0.0762 2.8194,0.0762 z m 3.302,5.003799 q 0,-1.9558 -1.1684,-2.8448 -1.143,-0.9144 -3.6068,-0.9144 -0.4572,0 -0.5588,0.0508 -0.1016,0.0508 -0.127,0.3048 -0.2286,3.2258 -0.3048,6.985002 l 2.6924,0.381 q 3.0734,-0.508 3.0734,-3.962402 z" />
  <path d="m 95.772329,111.15064 q -1.549399,-0.0508 -2.311399,-0.0508 -1.1938,0 -3.2004,0.1778 l -0.0762,-0.127 0.0762,-0.9144 q 1.0668,-0.0762 1.4224,-0.2286 0.381,-0.1524 0.381,-0.5334 0,-0.381 -0.1778,-0.8382 l -0.6096,-1.9558 q -0.508,-0.0254 -1.6764,-0.0254 -1.1684,0 -2.6162,0.1524 -0.889,2.3622 -0.889,2.5908 0,0.762 1.1938,0.762 h 1.0922 l 0.0762,0.1016 -0.1524,0.9652 q -1.5494,-0.127 -2.921,-0.127 l -2.3368,0.0508 0.1524,-1.0414 q 0.5588,-0.0762 0.889,-0.381 0.3302,-0.3302 0.6604,-1.0922 l 3.9878,-10.083802 1.8034,-0.3302 0.1778,0.0254 q 1.778,6.400802 3.2258,10.490202 0.254,0.7366 0.635,1.0414 0.4064,0.2794 1.269999,0.3556 l 0.0508,0.1016 z m -6.654799,-5.5372 q 0.889,0 1.8542,-0.1016 l -1.5494,-4.9276 h -0.1778 l -1.8542,5.0292 z" />
  <path d="m 106.40319,99.466638 h -0.762 l -0.0508,-0.1016 0.1778,-0.9906 q 1.397,0.0762 2.159,0.0762 l 2.159,-0.1524 -0.1016,1.0414 q -1.3716,0.1778 -1.397,1.270002 l -0.3048,10.922 -0.9906,0.2794 q -3.9116,-5.6896 -7.340595,-10.2362 h -0.127 l -0.0762,7.6962 q 0,0.4826 0.1524,0.6604 0.152395,0.1778 0.507995,0.1778 l 1.016,-0.0254 0.0762,0.0762 -0.2032,1.016 q -1.422395,-0.0762 -2.311395,-0.0762 l -2.1082,0.1524 0.127,-1.0414 q 1.2446,-0.1524 1.27,-1.2446 l 0.2794,-8.382 q 0,-0.635002 -0.381,-0.863602 -0.3556,-0.254 -1.397,-0.381 l -0.1016,-0.127 0.1778,-0.8636 q 1.2446,0.1016 1.9304,0.1016 l 1.549395,-0.0762 q 3.0734,4.521202 6.6548,9.271002 h 0.127 l -0.0254,-7.3406 q 0,-0.838202 -0.6858,-0.838202 z" />
  <path d="m 121.97789,111.15064 q -1.5494,-0.0508 -2.3114,-0.0508 -1.1938,0 -3.2004,0.1778 l -0.0762,-0.127 0.0762,-0.9144 q 1.0668,-0.0762 1.4224,-0.2286 0.381,-0.1524 0.381,-0.5334 0,-0.381 -0.1778,-0.8382 l -0.6096,-1.9558 q -0.508,-0.0254 -1.6764,-0.0254 -1.1684,0 -2.6162,0.1524 -0.889,2.3622 -0.889,2.5908 0,0.762 1.1938,0.762 h 1.0922 l 0.0762,0.1016 -0.1524,0.9652 q -1.5494,-0.127 -2.921,-0.127 l -2.3368,0.0508 0.1524,-1.0414 q 0.5588,-0.0762 0.889,-0.381 0.3302,-0.3302 0.6604,-1.0922 l 3.9878,-10.083802 1.8034,-0.3302 0.1778,0.0254 q 1.778,6.400802 3.2258,10.490202 0.254,0.7366 0.635,1.0414 0.4064,0.2794 1.27,0.3556 l 0.0508,0.1016 z m -6.6548,-5.5372 q 0.889,0 1.8542,-0.1016 l -1.5494,-4.9276 h -0.1778 l -1.8542,5.0292 z" />
  <path d="m 132.51426,99.466638 h -0.762 l -0.0508,-0.1016 0.1778,-0.9906 q 1.397,0.0762 2.159,0.0762 l 2.159,-0.1524 -0.1016,1.0414 q -1.3716,0.1778 -1.397,1.270002 l -0.3048,10.922 -0.9906,0.2794 q -3.9116,-5.6896 -7.3406,-10.2362 h -0.127 l -0.0762,7.6962 q 0,0.4826 0.1524,0.6604 0.1524,0.1778 0.508,0.1778 l 1.016,-0.0254 0.0762,0.0762 -0.2032,1.016 q -1.4224,-0.0762 -2.3114,-0.0762 l -2.1082,0.1524 0.127,-1.0414 q 1.2446,-0.1524 1.27,-1.2446 l 0.2794,-8.382 q 0,-0.635002 -0.381,-0.863602 -0.3556,-0.254 -1.397,-0.381 l -0.1016,-0.127 0.1778,-0.8636 q 1.2446,0.1016 1.9304,0.1016 l 1.5494,-0.0762 q 3.0734,4.521202 6.6548,9.271002 h 0.127 l -0.0254,-7.3406 q 0,-0.838202 -0.6858,-0.838202 z" />
  <path d="m 142.48675,111.32844 q -1.9304,-0.2286 -2.7178,-0.2286 -1.397,0 -2.7686,0.2286 l 0.127,-1.0668 q 0.9144,-0.1524 1.2446,-0.508 0.3302,-0.3556 0.3302,-1.1684 l 0.0254,-8.0772 q 0,-0.635002 -0.1524,-0.838202 -0.1524,-0.2286 -0.5842,-0.2286 l -0.7112,0.0508 -0.0508,-0.127 0.1524,-0.9652 q 1.4986,0.0508 2.286,0.0508 l 3.2004,-0.0762 q 3.0988,0 4.953,1.625602 1.8796,1.6002 1.8796,4.445 0,2.8448 -2.0828,4.8768 -2.0574,2.0066 -5.1308,2.0066 z m -0.9652,-11.760202 q -0.4064,0 -0.5588,0.1016 -0.127,0.0762 -0.1524,0.355602 -0.3048,7.1374 -0.3048,8.2804 0,1.1176 0.4826,1.4732 0.4826,0.3302 1.9304,0.3302 2.1336,0 3.3274,-1.397 1.2192,-1.397 1.2192,-3.937 0,-2.54 -1.524,-3.8608 -1.524,-1.346202 -4.4196,-1.346202 z" />
  <path d="m 161.80241,111.15064 q -1.5494,-0.0508 -2.3114,-0.0508 -1.1938,0 -3.2004,0.1778 l -0.0762,-0.127 0.0762,-0.9144 q 1.0668,-0.0762 1.4224,-0.2286 0.381,-0.1524 0.381,-0.5334 0,-0.381 -0.1778,-0.8382 l -0.6096,-1.9558 q -0.508,-0.0254 -1.6764,-0.0254 -1.1684,0 -2.6162,0.1524 -0.889,2.3622 -0.889,2.5908 0,0.762 1.1938,0.762 h 1.0922 l 0.0762,0.1016 -0.1524,0.9652 q -1.5494,-0.127 -2.921,-0.127 l -2.3368,0.0508 0.1524,-1.0414 q 0.5588,-0.0762 0.889,-0.381 0.3302,-0.3302 0.6604,-1.0922 l 3.9878,-10.083802 1.8034,-0.3302 0.1778,0.0254 q 1.778,6.400802 3.2258,10.490202 0.254,0.7366 0.635,1.0414 0.4064,0.2794 1.27,0.3556 l 0.0508,0.1016 z m -6.6548,-5.5372 q 0.889,0 1.8542,-0.1016 l -1.5494,-4.9276 h -0.1778 l -1.8542,5.0292 z m -2.8194,-9.067802 -0.3556,-0.5588 3.5052,-2.819399 h 0.3556 q 1.8542,1.5748 3.5052,2.819399 l -0.3556,0.5588 -0.2286,0.0254 q -1.7018,-0.9906 -3.0988,-1.650999 -1.3208,0.609599 -3.0988,1.650999 z" />
</g>
</svg>
